<?xml version="1.0" standalone="no"?>
<!DOCTYPE svg PUBLIC "-//W3C//DTD SVG 20010904//EN"
 "http://www.w3.org/TR/2001/REC-SVG-20010904/DTD/svg10.dtd">
<svg version="1.0" xmlns="http://www.w3.org/2000/svg"
 width="1365.000000pt" height="768.000000pt" viewBox="0 0 1365.000000 768.000000"
 preserveAspectRatio="xMidYMid meet">

<g transform="translate(0.000000,768.000000) scale(0.100000,-0.100000)"
fill="#000000" stroke="none">
<path d="M5040 6043 c-29 -86 -61 -164 -70 -173 -9 -9 -85 -41 -169 -70 -138
-48 -175 -69 -158 -87 4 -3 70 -28 148 -54 78 -27 153 -55 167 -62 20 -10 35
-41 81 -172 65 -185 77 -197 109 -108 11 32 38 107 59 168 l39 110 165 56
c220 76 221 78 17 149 -84 29 -160 56 -168 60 -8 5 -23 30 -32 57 -90 256
-101 283 -117 283 -12 0 -30 -38 -71 -157z"/>
<path d="M6684 5822 c-17 -11 -470 -752 -487 -796 -14 -35 17 -63 75 -71 106
-13 109 -14 102 -43 -4 -15 -8 -28 -9 -30 -2 -2 -61 -12 -132 -22 -70 -11
-330 -51 -578 -90 -422 -66 -454 -72 -524 -105 -180 -86 -390 -296 -476 -477
-15 -31 -25 -38 -77 -52 -75 -21 -167 -67 -211 -106 -78 -68 -97 -191 -100
-640 l-2 -235 29 -60 c61 -124 215 -238 364 -268 59 -12 65 -16 104 -67 115
-155 276 -278 432 -332 59 -20 73 -20 471 -14 l410 7 30 -48 c74 -121 420
-660 433 -675 14 -16 71 -17 926 -11 574 3 916 9 924 16 34 27 14 61 -154 252
-92 105 -221 253 -287 330 -66 77 -129 148 -139 158 -16 14 -39 17 -114 17
l-94 0 0 58 c0 62 -18 92 -53 92 -9 0 -17 5 -17 10 0 6 4 10 9 10 15 0 158
138 211 205 27 35 68 94 91 131 l41 69 -7 -80 c-8 -106 0 -117 90 -123 62 -4
66 -6 61 -26 -3 -11 -6 -59 -7 -105 -2 -76 0 -86 20 -102 26 -21 -24 -35 555
151 236 76 432 144 436 151 5 7 11 55 15 108 59 885 73 1115 68 1127 -5 13
-67 45 -383 197 -391 187 -527 248 -550 245 -34 -4 -50 -41 -50 -119 0 -37 -3
-81 -7 -99 l-6 -33 -58 6 c-85 9 -98 -5 -106 -113 -5 -70 -8 -80 -16 -60 -65
156 -151 291 -260 406 l-78 83 41 -2 c52 -2 66 15 76 90 l6 54 37 -5 c140 -21
143 -21 182 21 87 91 609 735 609 751 0 40 -22 51 -140 66 -63 9 -340 43 -615
76 -275 33 -626 76 -779 95 -297 37 -315 39 -332 27z m519 -157 c910 -112
1181 -146 1184 -149 2 -1 -491 -603 -515 -628 -4 -4 -149 8 -322 27 -173 19
-380 41 -460 50 -259 28 -744 86 -748 89 -6 7 393 666 404 666 2 0 208 -25
457 -55z m-657 -745 c19 0 24 -5 24 -26 0 -25 -2 -26 -41 -21 -49 6 -53 9 -44
37 4 14 12 19 22 16 8 -3 26 -6 39 -6z m483 -55 c174 -19 330 -36 346 -37 22
-2 31 -9 33 -25 4 -28 16 -28 -213 -4 -555 59 -515 53 -515 78 0 15 6 23 17
23 9 0 158 -16 332 -35z m565 -61 c9 -3 16 -16 16 -28 0 -19 -5 -21 -45 -18
-40 4 -45 7 -45 28 0 20 5 24 29 24 16 0 36 -3 45 -6z m-1239 -85 c-43 -28
-116 -89 -163 -135 -84 -84 -85 -85 -124 -79 l-39 7 7 102 c3 55 7 102 8 103
6 7 298 51 340 52 l49 1 -78 -51z m550 6 c127 -14 285 -32 351 -39 114 -13
126 -16 180 -52 33 -21 98 -76 145 -124 167 -165 269 -364 320 -621 16 -81 16
-340 0 -444 -54 -344 -270 -664 -538 -799 l-52 -26 -188 7 -188 7 114 18 c191
30 323 99 467 243 92 91 127 140 184 253 78 157 120 336 120 511 0 474 -275
877 -677 993 -112 33 -314 33 -427 0 -215 -62 -376 -188 -534 -418 -11 -16
-12 -3 -7 80 l6 99 45 51 c56 63 141 136 214 184 59 38 195 102 220 102 8 0
119 -11 245 -25z m-1255 -74 c-19 -10 -118 -53 -220 -96 -102 -43 -193 -85
-202 -94 -15 -14 -22 -96 -53 -634 -20 -340 -35 -632 -33 -649 3 -29 16 -39
172 -134 l169 -102 36 -69 c55 -103 120 -190 204 -270 42 -40 73 -74 69 -76
-4 -2 -126 -5 -272 -6 -251 -2 -268 -1 -323 19 -229 86 -454 361 -542 664 -40
139 -48 215 -42 396 4 134 10 184 30 263 85 321 280 578 532 698 69 33 108 43
285 73 245 41 233 39 190 17z m271 -188 c-21 -331 -40 -646 -67 -1123 -15
-261 -28 -476 -29 -478 -2 -2 -96 55 -443 268 l-134 82 7 116 c3 65 13 221 20
347 8 127 20 339 26 471 l13 242 50 22 c199 87 561 238 565 235 2 -2 -2 -84
-8 -182z m1179 92 c278 -72 496 -309 581 -633 27 -100 36 -300 19 -413 -85
-587 -606 -916 -1080 -683 -82 41 -108 61 -195 148 -113 114 -178 215 -231
354 -56 151 -67 226 -54 393 11 149 18 188 51 277 110 301 354 521 637 572 64
12 196 5 272 -15z m1374 -219 c121 -57 292 -138 379 -180 l158 -75 -7 -78 c-3
-43 -20 -292 -37 -553 l-32 -475 -145 -48 c-318 -105 -651 -209 -655 -205 -5
4 27 536 60 1003 8 116 19 291 25 390 13 239 21 325 27 325 3 0 105 -47 227
-104z m-2406 22 c-2 -36 -7 -44 -25 -46 -21 -3 -23 1 -23 42 0 43 2 46 26 46
23 0 25 -3 22 -42z m2052 -178 c0 -38 -2 -40 -30 -40 -28 0 -30 2 -30 40 0 38
2 40 30 40 28 0 30 -2 30 -40z m-2060 18 c0 -2 -11 -190 -25 -418 -14 -228
-25 -432 -25 -452 0 -34 -3 -38 -25 -38 -14 0 -25 6 -25 13 0 6 5 73 10 147
12 164 40 666 40 715 0 31 3 35 25 35 14 0 25 -1 25 -2z m2043 -208 c-2 -19
-15 -217 -29 -440 -14 -223 -29 -408 -33 -412 -3 -4 -17 -5 -29 -1 -21 5 -23
10 -17 57 6 58 55 774 55 812 0 22 4 25 28 22 24 -3 27 -7 25 -38z m-3539 -12
c-54 -151 -78 -416 -54 -603 6 -54 14 -104 17 -112 4 -11 -10 -13 -78 -11
l-83 3 2 95 c5 203 24 506 33 536 11 37 48 74 109 108 65 37 72 35 54 -16z
m1649 -925 c60 -90 179 -210 268 -269 82 -54 213 -110 307 -130 65 -13 62 -14
-117 -10 l-184 4 -67 46 c-90 62 -210 183 -272 276 -50 74 -50 76 -44 134 3
32 6 73 6 90 0 30 1 29 29 -21 15 -28 49 -82 74 -120z m-213 87 c0 -36 -2 -40
-25 -40 -22 0 -25 4 -25 40 0 36 3 40 25 40 23 0 25 -4 25 -40z m-1430 -12 c0
-7 16 -51 35 -98 19 -46 32 -86 30 -88 -2 -2 -29 9 -62 24 -55 26 -183 141
-183 164 0 6 37 10 90 10 65 0 90 -3 90 -12z m3470 -143 c0 -43 -1 -45 -30
-45 -29 0 -30 2 -30 45 0 43 1 45 30 45 29 0 30 -2 30 -45z m-2005 -43 c51
-80 145 -192 205 -241 52 -43 56 -50 44 -66 -8 -10 -14 -38 -14 -62 l0 -43
-131 0 -131 0 -71 41 c-68 40 -277 233 -264 245 2 3 46 -20 96 -51 132 -79
151 -75 162 37 4 40 8 99 8 131 l1 57 33 0 c27 0 36 -7 62 -48z m435 -417 c0
-22 -4 -25 -40 -25 -36 0 -40 3 -40 25 0 23 4 25 40 25 36 0 40 -2 40 -25z
m460 5 c353 -13 360 -14 360 -42 0 -20 -3 -21 -112 -15 -62 4 -198 9 -303 12
-263 8 -295 12 -295 36 0 23 -28 22 350 9z m560 -40 c0 -17 -7 -20 -45 -20
-38 0 -45 3 -45 20 0 17 7 20 45 20 38 0 45 -3 45 -20z m-380 -121 c349 -12
638 -24 642 -27 4 -4 110 -126 237 -272 l230 -265 -352 -6 c-194 -4 -557 -7
-809 -8 l-456 -1 -189 297 c-103 163 -189 300 -191 303 -3 8 39 7 888 -21z"/>
<path d="M6732 4420 c-386 -104 -615 -549 -502 -975 27 -100 94 -231 160 -311
163 -198 409 -284 642 -225 195 50 341 176 438 376 61 126 80 201 87 340 18
358 -185 684 -487 785 -95 32 -243 36 -338 10z m130 -172 c-66 -107 -235 -404
-246 -432 -3 -10 -9 -17 -11 -14 -3 3 -32 84 -64 181 l-59 177 51 46 c90 81
216 132 329 133 l57 1 -57 -92z m248 36 c86 -45 176 -126 229 -205 23 -34 41
-65 41 -69 0 -7 -539 -21 -548 -14 -7 5 189 324 199 324 6 0 42 -16 79 -36z
m-631 -424 c67 -198 131 -352 158 -382 9 -10 14 -20 12 -22 -2 -2 -77 8 -166
22 -121 19 -164 30 -168 41 -14 34 -17 200 -6 265 17 100 79 266 99 266 4 0
36 -85 71 -190z m963 -12 c8 -33 13 -106 12 -193 0 -124 -3 -149 -28 -222 -15
-46 -30 -83 -35 -83 -4 0 -29 48 -55 108 -64 144 -149 303 -202 380 l-43 62
168 0 169 0 14 -52z m-494 27 c161 -68 178 -327 27 -412 -47 -27 -131 -31
-173 -9 -89 46 -137 161 -112 265 31 132 147 202 258 156z m333 -538 l48 -108
-37 -42 c-83 -93 -152 -140 -258 -173 -45 -14 -95 -24 -111 -22 l-30 3 109
205 c59 113 122 243 140 290 l32 84 29 -64 c17 -36 51 -114 78 -173z m-741 32
c74 -11 199 -23 278 -26 78 -3 141 -9 140 -12 -2 -4 -41 -80 -88 -169 -98
-189 -85 -181 -216 -117 -85 42 -161 107 -213 184 -36 53 -91 153 -91 166 0 4
12 4 28 1 15 -4 88 -16 162 -27z"/>
<path d="M8815 5201 l-27 -81 -76 -23 c-104 -32 -104 -50 -2 -86 l75 -26 29
-83 c36 -105 50 -104 85 2 l26 80 79 26 c111 37 111 51 1 85 -33 11 -65 24
-72 30 -6 5 -22 42 -36 80 -34 96 -49 96 -82 -4z"/>
<path d="M8865 2063 c-21 -59 -43 -113 -49 -119 -6 -7 -62 -28 -124 -49 -84
-27 -112 -41 -110 -52 2 -10 47 -31 118 -55 63 -22 117 -42 119 -44 3 -3 21
-55 42 -116 20 -62 42 -114 49 -116 17 -6 25 9 65 128 l35 106 115 37 c63 21
117 43 121 49 11 17 -18 34 -127 72 l-107 37 -39 112 c-25 69 -45 113 -55 115
-11 2 -25 -26 -53 -105z"/>
<path d="M4975 1928 c-45 -135 -40 -129 -159 -168 -81 -26 -106 -38 -106 -51
0 -10 10 -21 23 -24 12 -4 61 -20 108 -37 l86 -29 18 -57 c34 -110 57 -162 70
-162 13 0 22 20 67 150 l23 65 108 39 c82 29 107 43 105 55 -2 10 -39 28 -107
52 l-104 35 -37 105 c-47 134 -59 137 -95 27z"/>
</g>
</svg>
